<svg xmlns="http://www.w3.org/2000/svg" width="192" height="192" viewBox="0 0 192 192">
  <defs>
    <linearGradient id="bg" x1="0%" y1="0%" x2="100%" y2="100%">
      <stop offset="0%" style="stop-color:#667eea"/>
      <stop offset="100%" style="stop-color:#764ba2"/>
    </linearGradient>
  </defs>
  <!-- Background -->
  <rect width="192" height="192" rx="32" fill="url(#bg)"/>
  <!-- Maple Leaf -->
  <g transform="translate(96,100)" fill="white">
    <path d="M0,-55 L8,-35 L28,-40 L18,-25 L35,-15 L20,-10 L25,5 L12,0 L0,25 L-12,0 L-25,5 L-20,-10 L-35,-15 L-18,-25 L-28,-40 L-8,-35 Z" opacity="0.95"/>
    <!-- Stem -->
    <rect x="-4" y="20" width="8" height="20" rx="2" opacity="0.9"/>
  </g>
  <!-- Math symbols -->
  <text x="55" y="60" font-family="Arial, sans-serif" font-size="24" font-weight="bold" fill="white" opacity="0.8">+</text>
  <text x="125" y="55" font-family="Arial, sans-serif" font-size="20" font-weight="bold" fill="white" opacity="0.7">รท</text>
  <text x="45" y="150" font-family="Arial, sans-serif" font-size="18" font-weight="bold" fill="white" opacity="0.7">ร</text>
  <text x="135" y="155" font-family="Arial, sans-serif" font-size="22" font-weight="bold" fill="white" opacity="0.75">=</text>
  <!-- Small shapes -->
  <circle cx="155" cy="95" r="6" fill="white" opacity="0.5"/>
  <rect x="30" y="90" width="10" height="10" rx="1" fill="white" opacity="0.5" transform="rotate(15,35,95)"/>
</svg>
